# xmcd CD database file
#
# Track frame offsets:
#	150
#	25089
#	51350
#	80348
#	110782
#	140342
#	171963
#	194894
#	232238
#
# Disc length: 3105 seconds
#
# Revision: 0
# Processed by: cddbd v1.5.1PL2 Copyright (c) Steve Scherf et al.
# Submitted via: CDex 1.51
#
DISCID=840c1f09
DTITLE=Jonathan Kreisberg - Unearth
DYEAR=2005
DGENRE=Jazz
TTITLE0=Minor Leaps
TTITLE1=Until The Sun Submits
TTITLE2=New For Now
TTITLE3=Pacific
TTITLE4=Microcosm For Two
TTITLE5=Hobroken
TTITLE6=Peru
TTITLE7=Unearth
TTITLE8=Enhanced CD Features
EXTD=YEAR: 2005
EXTT0=
EXTT1=
EXTT2=
EXTT3=
EXTT4=
EXTT5=
EXTT6=
EXTT7=
EXTT8=
PLAYORDER=
